<svg xmlns="http://www.w3.org/2000/svg" width="360" height="150" viewBox="0 0 360 150">
    <path
      d="M88.56,8.209L89.132,5.264A53,53 57.06,0 1,151.271 -36.649L332.872,-1.349A53,53 129.41,0 1,374.786 60.79L374.213,63.735A53,53 67.899,0 1,312.074 105.648L130.473,70.348A53,53 50.377,0 1,88.56 8.209z"
      fill="#991b1b"/>
  <path
      d="M-25.047,10.669L149.874,-49.561A53,53 0,0 1,217.242 -16.704L218.218,-13.867A53,53 0,0 1,185.361 53.5L10.44,113.731A53,53 0,0 1,-56.928 80.873L-57.904,78.037A53,53 71.11,0 1,-25.047 10.669z"
      fill="#991b1b"/>
  <path
      d="M5.356,-108.487L267.265,-198.67A53,53 118.588,0 1,334.633 -165.812L388.078,-10.596A53,53 0,0 1,355.22 56.772L93.312,146.954A53,53 128.932,0 1,25.944 114.097L-27.501,-41.12A53,53 53.938,0 1,5.356 -108.487z"
      fill="#dc2626"/>
</svg>