<?xml version="1.0" encoding="UTF-8"?>
<svg width="1248px" height="218px" viewBox="0 0 1248 218" version="1.1" xmlns="http://www.w3.org/2000/svg" xmlns:xlink="http://www.w3.org/1999/xlink">
    <title>HardeepRupal</title>
    <g id="Page-1" stroke="none" stroke-width="1" fill="none" fill-rule="evenodd">
        <path d="M32.421875,168.914062 C43.0989583,168.914062 52.0182292,168.002604 59.1796875,166.179687 C66.3411458,164.356771 72.7864583,161.6875 78.515625,158.171875 C84.2447917,154.65625 89.84375,150.391927 95.3125,145.378906 C100.78125,140.365885 107.291667,134.669271 114.84375,128.289062 C117.96875,125.554687 121.614583,123.471354 125.78125,122.039062 C129.947917,120.606771 134.309896,119.467448 138.867188,118.621094 C143.424479,117.77474 147.981771,116.99349 152.539063,116.277344 C157.096354,115.561198 161.393229,114.552083 165.429688,113.25 C165.690104,113.119792 166.048177,113.119792 166.503906,113.25 C166.959635,113.380208 167.317708,113.445312 167.578125,113.445312 C167.578125,116.309896 167.154948,119.597656 166.308594,123.308594 C165.46224,127.019531 164.257813,130.730469 162.695312,134.441406 C161.132813,138.152344 159.277344,141.733073 157.128906,145.183594 C154.980469,148.634115 152.669271,151.466146 150.195312,153.679687 C150.585938,155.242187 151.497396,156.088542 152.929688,156.21875 C154.361979,156.348958 155.664063,156.414062 156.835938,156.414062 C158.789063,156.414062 160.416667,156.153646 161.71875,155.632812 C163.020833,155.111979 164.257813,153.549479 165.429688,150.945312 L165.429688,150.945312 L213.476563,44.890625 C214.127604,43.5885417 214.84375,41.5377604 215.625,38.7382812 C216.40625,35.9388021 216.829427,33.3020833 216.894531,30.828125 C216.959635,28.3541667 216.601563,26.5638021 215.820313,25.4570312 C215.039063,24.3502604 213.411458,24.8385417 210.9375,26.921875 C205.078125,38.7708333 199.121094,50.5872396 193.066406,62.3710937 C187.011719,74.1549479 181.119792,86.0364583 175.390625,98.015625 L175.390625,98.015625 L173.046875,100.359375 C171.614583,100.619792 168.977865,101.108073 165.136719,101.824219 C161.295573,102.540365 157.19401,103.354167 152.832031,104.265625 C148.470052,105.177083 144.36849,106.05599 140.527344,106.902344 C136.686198,107.748698 134.114583,108.432292 132.8125,108.953125 C132.421875,109.083333 132.128906,109.246094 131.933594,109.441406 C131.738281,109.636719 131.803385,109.34375 132.128906,108.5625 C132.454427,107.78125 133.170573,106.186198 134.277344,103.777344 C135.384115,101.36849 137.109375,97.6901042 139.453125,92.7421875 C141.796875,87.7942708 144.856771,81.21875 148.632813,73.015625 C152.408854,64.8125 157.161458,54.5260417 162.890625,42.15625 C163.020833,42.0260417 163.11849,41.5052083 163.183594,40.59375 C163.248698,39.6822917 163.28125,39.03125 163.28125,38.640625 C163.28125,36.5572917 162.760417,34.5065104 161.71875,32.4882812 C160.677083,30.4700521 158.919271,29.4609375 156.445312,29.4609375 C156.445312,29.4609375 154.882813,30.6002604 151.757813,32.8789062 C148.632813,35.1575521 144.759115,38.0221354 140.136719,41.4726562 C135.514323,44.9231771 130.501302,48.7317708 125.097656,52.8984375 C119.69401,57.0651042 114.648438,61.0364583 109.960938,64.8125 C105.273438,68.5885417 101.39974,71.9088542 98.3398438,74.7734375 C95.2799479,77.6380208 93.75,79.5911458 93.75,80.6328125 C97.7864583,80.6328125 101.692708,79.5585937 105.46875,77.4101562 C109.244792,75.2617187 112.955729,72.8528646 116.601563,70.1835937 C120.247396,67.5143229 123.893229,65.1054687 127.539063,62.9570312 C131.184896,60.8085937 134.960938,59.734375 138.867188,59.734375 C138.867188,59.8645833 138.932292,59.9296875 139.0625,59.9296875 L139.0625,59.9296875 L140.039062,59.9296875 C136.523438,68.0026042 132.779948,76.0104167 128.808594,83.953125 C124.83724,91.8958333 120.47526,99.5455729 115.722656,106.902344 C110.970052,114.259115 105.794271,121.095052 100.195313,127.410156 C94.5963542,133.72526 88.3789062,139.19401 81.5429688,143.816406 C74.7070313,148.438802 67.1875,152.084635 58.984375,154.753906 C50.78125,157.423177 41.796875,158.757812 32.03125,158.757812 C29.6875,158.757812 27.2460938,158.529948 24.7070313,158.074219 C22.1679688,157.61849 19.8567708,156.83724 17.7734375,155.730469 C15.6901042,154.623698 13.9648438,153.126302 12.5976563,151.238281 C11.2304688,149.35026 10.546875,146.908854 10.546875,143.914062 C10.546875,141.960937 10.6445312,140.138021 10.8398438,138.445312 C11.0351563,136.752604 11.9140625,135.059896 13.4765625,133.367187 C13.2161458,133.236979 12.7929688,133.171875 12.2070313,133.171875 L12.2070313,133.171875 L10.9375,133.171875 C9.89583333,133.171875 8.7890625,133.497396 7.6171875,134.148437 C6.4453125,134.799479 5.33854167,135.645833 4.296875,136.6875 C3.25520833,137.729167 2.40885417,138.835937 1.7578125,140.007812 C1.10677083,141.179687 0.78125,142.286458 0.78125,143.328125 C0.78125,148.276042 1.62760417,152.377604 3.3203125,155.632812 C5.01302083,158.888021 7.32421875,161.492187 10.2539062,163.445312 C13.1835938,165.398437 16.5364583,166.798177 20.3125,167.644531 C24.0885417,168.490885 28.125,168.914062 32.421875,168.914062 Z M213.867188,157.195312 C216.992188,157.195312 220.019531,156.544271 222.949219,155.242187 C225.878906,153.940104 228.613281,152.3125 231.152344,150.359375 C233.691406,148.40625 236.10026,146.22526 238.378906,143.816406 C240.657552,141.407552 242.773438,139.096354 244.726562,136.882812 C244.726562,138.966146 245.084635,141.082031 245.800781,143.230469 C246.516927,145.378906 247.526042,147.299479 248.828125,148.992187 C250.130208,150.684896 251.692708,152.052083 253.515625,153.09375 C255.338542,154.135417 257.421875,154.65625 259.765625,154.65625 C262.239583,154.65625 264.941406,154.395833 267.871094,153.875 C270.800781,153.354167 273.632812,152.540365 276.367188,151.433594 C279.101562,150.326823 281.705729,148.992187 284.179688,147.429687 C286.653646,145.867187 288.671875,143.979167 290.234375,141.765625 C289.84375,141.765625 289.029948,141.733073 287.792969,141.667969 C286.55599,141.602865 285.677083,141.570312 285.15625,141.570312 C282.161458,141.570312 279.199219,142.026042 276.269531,142.9375 C273.339844,143.848958 270.3125,144.304687 267.1875,144.304687 C263.411458,144.304687 260.77474,143.295573 259.277344,141.277344 C257.779948,139.259115 257.03125,136.557292 257.03125,133.171875 C257.03125,129.916667 257.714844,126.856771 259.082031,123.992187 C260.449219,121.127604 261.946615,118.328125 263.574219,115.59375 C265.201823,112.859375 266.699219,110.125 268.066406,107.390625 C269.433594,104.65625 270.117188,101.791667 270.117188,98.796875 C267.643229,94.890625 264.420573,92.2864583 260.449219,90.984375 C256.477865,89.6822917 252.148438,89.4544271 247.460938,90.3007812 C242.773438,91.1471354 237.955729,93.0677083 233.007812,96.0625 C228.059896,99.0572917 223.470052,102.865885 219.238281,107.488281 C215.00651,112.110677 211.263021,117.546875 208.007812,123.796875 C204.752604,130.046875 202.539062,136.882812 201.367188,144.304687 C201.367188,147.820312 202.604167,150.847656 205.078125,153.386719 C207.552083,155.925781 210.481771,157.195312 213.867188,157.195312 Z M216.796875,144.304687 C215.234375,143.914062 214.420573,143.067708 214.355469,141.765625 C214.290365,140.463542 214.257812,139.291667 214.257812,138.25 C214.257812,133.692708 215.397135,129.330729 217.675781,125.164062 C219.954427,120.997396 222.916667,117.31901 226.5625,114.128906 C230.208333,110.938802 234.309896,108.432292 238.867188,106.609375 C243.424479,104.786458 247.916667,103.875 252.34375,103.875 C252.34375,104.135417 252.376302,104.558594 252.441406,105.144531 L252.464294,105.356628 C252.51414,105.83372 252.539062,106.186198 252.539062,106.414062 C252.539062,110.190104 251.302083,114.128906 248.828125,118.230469 C246.354167,122.332031 243.294271,126.173177 239.648438,129.753906 C236.002604,133.334635 232.096354,136.459635 227.929688,139.128906 C223.763021,141.798177 220.052083,143.523437 216.796875,144.304687 Z M340.429688,157.195312 C343.164062,157.585937 346.582031,157.358073 350.683594,156.511719 C354.785156,155.665365 358.561198,154.591146 362.011719,153.289062 C365.46224,151.986979 368.033854,150.58724 369.726562,149.089844 C371.419271,147.592448 371.223958,146.322917 369.140625,145.28125 C361.328125,147.625 355.30599,148.731771 351.074219,148.601562 C346.842448,148.471354 343.847656,147.46224 342.089844,145.574219 C340.332031,143.686198 339.615885,141.114583 339.941406,137.859375 C340.266927,134.604167 341.145833,130.958333 342.578125,126.921875 C344.010417,122.885417 345.768229,118.621094 347.851562,114.128906 C349.934896,109.636719 351.822917,105.242187 353.515625,100.945312 C353.515625,97.9505208 353.28776,95.2161458 352.832031,92.7421875 C352.376302,90.2682292 351.692708,87.8268229 350.78125,85.4179687 C349.869792,83.0091146 348.763021,80.4375 347.460938,77.703125 C346.158854,74.96875 344.661458,71.84375 342.96875,68.328125 C342.708333,68.1979167 342.089844,68.0677083 341.113281,67.9375 C340.136719,67.8072917 339.518229,67.7421875 339.257812,67.7421875 C337.565104,67.7421875 336.458333,67.8723958 335.9375,68.1328125 C335.416667,68.3932292 335.058594,68.8164062 334.863281,69.4023437 C334.667969,69.9882812 334.472656,70.8020833 334.277344,71.84375 C334.082031,72.8854167 333.59375,74.2526042 332.8125,75.9453125 C332.161458,77.3776042 331.184896,79.2981771 329.882812,81.7070312 L329.882812,81.7070312 L325.976562,88.9335937 C324.674479,91.3424479 323.470052,93.4908854 322.363281,95.3789062 C321.25651,97.2669271 320.572917,98.40625 320.3125,98.796875 C314.192708,106.609375 307.97526,113.901042 301.660156,120.671875 C295.345052,127.442708 288.28125,133.432292 280.46875,138.640625 C279.427083,139.291667 278.352865,139.877604 277.246094,140.398437 C276.139323,140.919271 275,141.179687 273.828125,141.179687 L273.828125,141.179687 L282.8125,148.796875 C283.072917,148.796875 284.21224,147.885417 286.230469,146.0625 C288.248698,144.239583 290.592448,142.123698 293.261719,139.714844 C295.93099,137.30599 298.60026,134.864583 301.269531,132.390625 C303.938802,129.916667 306.054688,127.963542 307.617188,126.53125 C309.830729,124.708333 312.304688,122.429687 315.039062,119.695312 C317.773438,116.960937 320.572917,114.096354 323.4375,111.101562 C326.302083,108.106771 329.003906,105.079427 331.542969,102.019531 C334.082031,98.9596354 336.263021,96.1927083 338.085938,93.71875 C338.085938,93.5885417 338.248698,93.4908854 338.574219,93.4257812 C338.89974,93.3606771 339.127604,93.328125 339.257812,93.328125 C340.169271,93.328125 340.917969,93.6861979 341.503906,94.4023437 C342.089844,95.1184896 342.480469,95.9973958 342.675781,97.0390625 C342.871094,98.0807292 343.001302,99.1549479 343.066406,100.261719 C343.13151,101.36849 343.164062,102.3125 343.164062,103.09375 C343.164062,106.479167 342.35026,109.669271 340.722656,112.664062 C339.095052,115.658854 337.304688,118.653646 335.351562,121.648437 C333.398438,124.643229 331.608073,127.800781 329.980469,131.121094 C328.352865,134.441406 327.539062,138.054687 327.539062,141.960937 C327.539062,143.914062 327.766927,145.802083 328.222656,147.625 C328.678385,149.447917 329.394531,151.075521 330.371094,152.507812 C331.347656,153.940104 332.64974,155.079427 334.277344,155.925781 C335.904948,156.772135 337.955729,157.195312 340.429688,157.195312 Z M375.976562,157 C376.888021,156.869792 378.059896,156.674479 379.492188,156.414062 C380.924479,156.153646 382.324219,155.893229 383.691406,155.632812 C385.058594,155.372396 386.230469,155.111979 387.207031,154.851562 C388.183594,154.591146 388.671875,154.460937 388.671875,154.460937 L388.671875,154.460937 L418.945312,129.265625 C420.507812,135.125 422.786458,139.617187 425.78125,142.742187 C428.776042,145.867187 432.096354,148.015625 435.742188,149.1875 C439.388021,150.359375 443.033854,150.75 446.679688,150.359375 C450.325521,149.96875 453.548177,149.1875 456.347656,148.015625 C459.147135,146.84375 461.197917,145.509115 462.5,144.011719 C463.802083,142.514323 463.964844,141.21224 462.988281,140.105469 C462.011719,138.998698 459.570312,138.315104 455.664062,138.054687 C451.757812,137.794271 445.898438,138.380208 438.085938,139.8125 C433.789062,138.25 431.608073,135.450521 431.542969,131.414062 C431.477865,127.377604 432.64974,122.657552 435.058594,117.253906 C437.467448,111.85026 440.722656,105.990885 444.824219,99.6757812 C448.925781,93.3606771 452.994792,87.1432292 457.03125,81.0234375 C458.463542,78.5494792 460.123698,75.4570312 462.011719,71.7460937 C463.89974,68.0351562 465.885417,64.1614583 467.96875,60.125 C470.052083,56.0885417 472.102865,52.0520833 474.121094,48.015625 C476.139323,43.9791667 477.929688,40.3007812 479.492188,36.9804687 C481.054688,33.6601562 482.324219,30.9583333 483.300781,28.875 C484.277344,26.7916667 484.765625,25.6197917 484.765625,25.359375 L484.765625,25.359375 L477.148438,17.7421875 C476.888021,17.7421875 475.846354,18.9791667 474.023438,21.453125 C472.200521,23.9270833 470.084635,26.921875 467.675781,30.4375 C465.266927,33.953125 462.825521,37.5664062 460.351562,41.2773437 C457.877604,44.9882812 455.924479,48.0807292 454.492188,50.5546875 C453.580729,51.9869792 452.148438,54.4934896 450.195312,58.0742187 C448.242188,61.6549479 446.191406,65.4635417 444.042969,69.5 C441.894531,73.5364583 439.876302,77.3776042 437.988281,81.0234375 C437.116887,82.7061298 436.377242,84.1530603 435.769346,85.3642289 L435.476378,85.9501664 C434.912398,87.0827478 434.480168,87.9795673 434.179688,88.640625 L434.179688,88.640625 L433.007812,88.640625 C430.533854,88.640625 428.190104,88.1848958 425.976562,87.2734375 L425.500239,87.0851004 C423.427535,86.2992001 421.24256,85.90625 418.945312,85.90625 C412.695312,85.90625 406.119792,87.3710937 399.21875,90.3007812 C392.317708,93.2304687 386.002604,97.1041667 380.273438,101.921875 C374.544271,106.739583 369.824219,112.273437 366.113281,118.523437 C362.402344,124.773437 360.546875,131.153646 360.546875,137.664062 C360.546875,140.138021 360.709635,142.546875 361.035156,144.890625 C361.360677,147.234375 362.044271,149.285156 363.085938,151.042969 C364.127604,152.800781 365.592448,154.233073 367.480469,155.339844 C369.36849,156.446615 371.809896,157 374.804688,157 L374.804688,157 L375.976562,157 Z M377.148438,144.304687 C375.976562,144.304687 375.097656,143.979167 374.511719,143.328125 C373.925781,142.677083 373.535156,141.928385 373.339844,141.082031 C373.144531,140.235677 373.079427,139.291667 373.144531,138.25 C373.209635,137.208333 373.242188,136.296875 373.242188,135.515625 C373.242188,130.4375 374.674479,125.652344 377.539062,121.160156 C380.403646,116.667969 384.016927,112.761719 388.378906,109.441406 C392.740885,106.121094 397.526042,103.484375 402.734375,101.53125 C407.942708,99.578125 412.890625,98.6015625 417.578125,98.6015625 C418.229167,98.6015625 419.075521,98.5690104 420.117188,98.5039062 C421.158854,98.4388021 422.167969,98.5039062 423.144531,98.6992187 C424.121094,98.8945312 424.967448,99.2851562 425.683594,99.8710937 C426.39974,100.457031 426.757812,101.335937 426.757812,102.507812 C426.757812,102.638021 426.72526,102.735677 426.660156,102.800781 C426.595052,102.865885 426.5625,103.028646 426.5625,103.289062 L426.5625,103.289062 L426.5625,103.875 C425.651042,104.916667 424.023438,106.609375 421.679688,108.953125 C419.335938,111.296875 416.829427,113.835937 414.160156,116.570312 C411.490885,119.304687 408.919271,121.876302 406.445312,124.285156 C403.971354,126.69401 402.278646,128.354167 401.367188,129.265625 C400.455729,130.046875 398.990885,131.283854 396.972656,132.976562 C394.954427,134.669271 392.773438,136.361979 390.429688,138.054687 C388.085938,139.747396 385.709635,141.21224 383.300781,142.449219 C380.891927,143.686198 378.841146,144.304687 377.148438,144.304687 Z M473.730469,154.265625 C478.613281,155.567708 483.919271,156.121094 489.648437,155.925781 C495.377604,155.730469 501.171875,154.981771 507.03125,153.679687 C512.890625,152.377604 518.033854,150.91276 522.460938,149.285156 C526.888021,147.657552 530.175781,146.095052 532.324219,144.597656 C534.472656,143.10026 534.765625,141.99349 533.203125,141.277344 C531.640625,140.561198 527.799479,140.496094 521.679688,141.082031 C515.559896,141.667969 506.380208,143.263021 494.140625,145.867187 C493.359375,145.736979 492.057292,145.606771 490.234375,145.476562 C488.411458,145.346354 486.588542,145.11849 484.765625,144.792969 C482.942708,144.467448 481.347656,143.979167 479.980469,143.328125 C478.613281,142.677083 477.929687,141.765625 477.929687,140.59375 C477.929687,138.510417 479.52474,136.264323 482.714844,133.855469 C485.904948,131.446615 489.420573,128.744792 493.261719,125.75 C497.102865,122.755208 500.61849,119.369792 503.808594,115.59375 C506.998698,111.817708 508.59375,107.390625 508.59375,102.3125 C509.114583,98.5364583 508.59375,95.7369792 507.03125,93.9140625 C505.46875,92.0911458 503.320312,91.0820312 500.585937,90.8867187 C497.851562,90.6914062 494.69401,91.2447917 491.113281,92.546875 C487.532552,93.8489583 483.984375,95.7695312 480.46875,98.3085937 C476.953125,100.847656 473.665365,103.842448 470.605469,107.292969 C467.545573,110.74349 465.071615,114.584635 463.183594,118.816406 C461.295573,123.048177 460.221354,127.540365 459.960937,132.292969 C459.700521,137.045573 460.677083,141.895833 462.890625,146.84375 C465.234375,150.489583 468.847656,152.963542 473.730469,154.265625 Z M476.757812,124.1875 L476.171875,124.1875 C476.041667,124.1875 475.846354,124.122396 475.585938,123.992187 C476.236979,121.778646 477.213542,119.402344 478.515625,116.863281 C479.817708,114.324219 481.41276,111.980469 483.300781,109.832031 C485.188802,107.683594 487.304688,105.893229 489.648438,104.460937 C491.992188,103.028646 494.466146,102.3125 497.070312,102.3125 C497.070312,104.265625 496.354167,106.479167 494.921875,108.953125 C493.489583,111.427083 491.731771,113.803385 489.648438,116.082031 C487.565104,118.360677 485.351562,120.28125 483.007812,121.84375 C480.664062,123.40625 478.580729,124.1875 476.757812,124.1875 L476.757812,124.1875 Z M540.722656,154.265625 C545.605469,155.567708 550.911458,156.121094 556.640625,155.925781 C562.369792,155.730469 568.164062,154.981771 574.023437,153.679687 C579.882812,152.377604 585.026042,150.91276 589.453125,149.285156 C593.880208,147.657552 597.167969,146.095052 599.316406,144.597656 C601.464844,143.10026 601.757812,141.99349 600.195312,141.277344 C598.632812,140.561198 594.791667,140.496094 588.671875,141.082031 C582.552083,141.667969 573.372396,143.263021 561.132812,145.867187 C560.351562,145.736979 559.049479,145.606771 557.226562,145.476562 C555.403646,145.346354 553.580729,145.11849 551.757812,144.792969 C549.934896,144.467448 548.339844,143.979167 546.972656,143.328125 C545.605469,142.677083 544.921875,141.765625 544.921875,140.59375 C544.921875,138.510417 546.516927,136.264323 549.707031,133.855469 C552.897135,131.446615 556.41276,128.744792 560.253906,125.75 C564.095052,122.755208 567.610677,119.369792 570.800781,115.59375 C573.990885,111.817708 575.585937,107.390625 575.585937,102.3125 C576.106771,98.5364583 575.585937,95.7369792 574.023437,93.9140625 C572.460937,92.0911458 570.3125,91.0820312 567.578125,90.8867187 C564.84375,90.6914062 561.686198,91.2447917 558.105469,92.546875 C554.52474,93.8489583 550.976562,95.7695312 547.460937,98.3085937 C543.945312,100.847656 540.657552,103.842448 537.597656,107.292969 C534.53776,110.74349 532.063802,114.584635 530.175781,118.816406 C528.28776,123.048177 527.213542,127.540365 526.953125,132.292969 C526.692708,137.045573 527.669271,141.895833 529.882812,146.84375 C532.226562,150.489583 535.839844,152.963542 540.722656,154.265625 Z M543.75,124.1875 L543.164062,124.1875 C543.033854,124.1875 542.838542,124.122396 542.578125,123.992187 C543.229167,121.778646 544.205729,119.402344 545.507812,116.863281 C546.809896,114.324219 548.404948,111.980469 550.292969,109.832031 C552.18099,107.683594 554.296875,105.893229 556.640625,104.460937 C558.984375,103.028646 561.458333,102.3125 564.0625,102.3125 C564.0625,104.265625 563.346354,106.479167 561.914062,108.953125 C560.481771,111.427083 558.723958,113.803385 556.640625,116.082031 C554.557292,118.360677 552.34375,120.28125 550,121.84375 C547.65625,123.40625 545.572917,124.1875 543.75,124.1875 L543.75,124.1875 Z M579.492188,217.9375 C580.664062,217.9375 582.161458,217.77474 583.984375,217.449219 C585.807292,217.123698 586.914062,216.375 587.304688,215.203125 L587.304688,215.203125 L612.695312,151.921875 L615.234375,149.382812 C620.572917,150.684896 626.106771,150.847656 631.835938,149.871094 C637.565104,148.894531 643.13151,147.104167 648.535156,144.5 C653.938802,141.895833 659.082031,138.575521 663.964844,134.539062 C668.847656,130.502604 673.111979,126.010417 676.757812,121.0625 C680.403646,116.114583 683.300781,110.873698 685.449219,105.339844 C687.597656,99.8059896 688.671875,94.2395833 688.671875,88.640625 C688.671875,83.4322917 687.695312,79.9817708 685.742188,78.2890625 C683.789062,76.5963542 680.46875,75.75 675.78125,75.75 C672.65625,75.75 669.075521,76.6289062 665.039062,78.3867187 C661.002604,80.1445312 656.86849,82.4231771 652.636719,85.2226562 C648.404948,88.0221354 644.108073,91.2122396 639.746094,94.7929687 C635.384115,98.3736979 631.315104,102.052083 627.539062,105.828125 C623.763021,109.604167 620.345052,113.315104 617.285156,116.960937 C614.22526,120.606771 611.848958,123.796875 610.15625,126.53125 C609.244792,128.484375 607.845052,131.446615 605.957031,135.417969 C604.06901,139.389323 601.953125,143.88151 599.609375,148.894531 C597.265625,153.907552 594.824219,159.148437 592.285156,164.617187 C589.746094,170.085937 587.304688,175.326823 584.960938,180.339844 C582.617188,185.352865 580.533854,189.845052 578.710938,193.816406 C576.888021,197.78776 575.585938,200.684896 574.804688,202.507812 C574.674479,202.768229 574.479167,203.25651 574.21875,203.972656 C573.958333,204.688802 573.697917,205.4375 573.4375,206.21875 L573.242188,206.798584 C573.046875,207.372314 572.851562,207.927734 572.65625,208.464844 C572.395833,209.18099 572.200521,209.734375 572.070312,210.125 C572.070312,210.255208 572.03776,210.515625 571.972656,210.90625 C571.907552,211.296875 571.875,211.557292 571.875,211.6875 C571.875,213.640625 572.721354,215.170573 574.414062,216.277344 C576.106771,217.384115 577.799479,217.9375 579.492188,217.9375 Z M622.65625,135.90625 L622.65625,131.804687 C622.65625,131.544271 623.242188,130.567708 624.414062,128.875 C625.585938,127.182292 626.985677,125.261719 628.613281,123.113281 C630.240885,120.964844 631.901042,118.816406 633.59375,116.667969 C635.286458,114.519531 636.71875,112.794271 637.890625,111.492187 C640.494792,107.976562 643.782552,104.721354 647.753906,101.726562 C651.72526,98.7317708 655.664062,96.3229167 659.570312,94.5 C663.476562,92.6770833 666.992188,91.5703125 670.117188,91.1796875 C673.242188,90.7890625 675.325521,91.375 676.367188,92.9375 C677.408854,94.5 677.018229,97.2018229 675.195312,101.042969 C673.372396,104.884115 669.401042,110.059896 663.28125,116.570312 C657.942708,124.122396 652.083333,129.233073 645.703125,131.902344 C639.322917,134.571615 631.640625,135.90625 622.65625,135.90625 L622.65625,135.90625 Z M888.28125,177.703125 C891.40625,177.703125 893.945312,177.442708 895.898438,176.921875 C897.851562,176.401042 900.325521,174.96875 903.320312,172.625 C903.190104,172.364583 902.799479,171.908854 902.148438,171.257812 C901.497396,170.606771 901.041667,170.216146 900.78125,170.085937 C900.390625,169.955729 899.446615,169.792969 897.949219,169.597656 C896.451823,169.402344 894.824219,169.141927 893.066406,168.816406 C891.308594,168.490885 889.713542,168.197917 888.28125,167.9375 C886.848958,167.677083 885.9375,167.481771 885.546875,167.351562 C883.072917,166.440104 880.957031,164.096354 879.199219,160.320312 C877.441406,156.544271 876.009115,151.954427 874.902344,146.550781 C873.795573,141.147135 872.916667,135.352865 872.265625,129.167969 C871.614583,122.983073 871.126302,117.091146 870.800781,111.492187 C870.47526,105.893229 870.279948,100.91276 870.214844,96.5507812 C870.15439,92.500372 870.122004,89.6568811 870.117686,88.0203085 L870.117188,87.6640625 C870.117188,87.5338542 871.451823,86.5898437 874.121094,84.8320312 C876.790365,83.0742187 880.143229,80.6979167 884.179688,77.703125 C888.216146,74.7083333 892.545573,71.1276042 897.167969,66.9609375 C901.790365,62.7942708 906.119792,58.171875 910.15625,53.09375 C914.192708,48.015625 917.545573,42.5143229 920.214844,36.5898437 C922.884115,30.6653646 924.21875,24.5130208 924.21875,18.1328125 C924.739583,15.5286458 924.674479,13.1197917 924.023438,10.90625 C923.372396,8.69270833 922.330729,6.73958333 920.898438,5.046875 C919.466146,3.35416667 917.675781,2.08463542 915.527344,1.23828125 C913.378906,0.391927083 911.067708,0.0338541667 908.59375,0.1640625 C901.692708,0.1640625 895.214844,2.05208333 889.160156,5.828125 C883.105469,9.60416667 877.50651,14.2591146 872.363281,19.7929687 C867.220052,25.3268229 862.565104,31.1861979 858.398438,37.3710937 C854.231771,43.5559896 850.585938,48.9921875 847.460938,53.6796875 C842.513021,61.4921875 837.5,69.4023437 832.421875,77.4101562 C827.34375,85.4179687 822.526042,93.4908854 817.96875,101.628906 C813.411458,109.766927 809.277344,117.970052 805.566406,126.238281 C801.855469,134.50651 798.893229,142.807292 796.679688,151.140625 C796.679688,153.744792 797.200521,155.470052 798.242188,156.316406 C799.283854,157.16276 801.106771,157.585937 803.710938,157.585937 C805.143229,157.585937 806.217448,157.520833 806.933594,157.390625 C807.64974,157.260417 808.235677,156.902344 808.691406,156.316406 C809.147135,155.730469 809.570312,154.949219 809.960938,153.972656 C810.351562,152.996094 811.067708,151.596354 812.109375,149.773437 C813.020833,148.080729 814.420573,145.509115 816.308594,142.058594 C818.196615,138.608073 820.3125,134.734375 822.65625,130.4375 C825,126.140625 827.441406,121.583333 829.980469,116.765625 C832.519531,111.947917 834.960938,107.390625 837.304688,103.09375 C839.648438,98.796875 841.699219,94.9557292 843.457031,91.5703125 C845.214844,88.1848958 846.549479,85.6458333 847.460938,83.953125 C851.106771,83.5625 853.808594,84.6367187 855.566406,87.1757812 C857.324219,89.7148437 858.59375,93.1328125 859.375,97.4296875 C860.15625,101.726562 860.579427,106.707031 860.644531,112.371094 C860.709635,118.035156 860.839844,123.861979 861.035156,129.851562 C861.230469,135.841146 861.653646,141.700521 862.304688,147.429687 C862.955729,153.158854 864.22526,158.269531 866.113281,162.761719 C868.001302,167.253906 870.703125,170.867187 874.21875,173.601562 C877.734375,176.335937 882.421875,177.703125 888.28125,177.703125 Z M867.382812,73.9921875 C865.690104,73.9921875 864.095052,73.9596354 862.597656,73.8945312 C861.10026,73.8294271 859.765625,73.6015625 858.59375,73.2109375 C857.421875,72.8203125 856.510417,72.1367187 855.859375,71.1601562 C855.208333,70.1835937 854.882812,68.71875 854.882812,66.765625 C854.882812,64.03125 855.729167,60.7109375 857.421875,56.8046875 C859.114583,52.8984375 861.328125,48.8294271 864.0625,44.5976562 C866.796875,40.3658854 869.954427,36.1992187 873.535156,32.0976562 C877.115885,27.9960937 880.794271,24.3177083 884.570312,21.0625 C888.346354,17.8072917 892.057292,15.1705729 895.703125,13.1523437 C899.348958,11.1341146 902.669271,10.125 905.664062,10.125 C907.356771,10.125 908.59375,10.4505208 909.375,11.1015625 C910.15625,11.7526042 910.677083,12.6315104 910.9375,13.7382812 C911.197917,14.8450521 911.328125,16.0494792 911.328125,17.3515625 L911.328125,17.3515625 L911.328125,21.2578125 C911.328125,25.9453125 910.026042,31.3489583 907.421875,37.46875 C904.817708,43.5885417 901.39974,49.3502604 897.167969,54.7539062 C892.936198,60.1575521 888.216146,64.7148437 883.007812,68.4257812 C877.799479,72.1367187 872.591146,73.9921875 867.382812,73.9921875 Z M921.484375,157.195312 C925.78125,157.195312 929.752604,156.283854 933.398438,154.460937 C937.044271,152.638021 940.527344,150.424479 943.847656,147.820312 C947.167969,145.216146 950.390625,142.416667 953.515625,139.421875 C956.640625,136.427083 959.895833,133.822917 963.28125,131.609375 C964.453125,135.776042 966.829427,138.933594 970.410156,141.082031 C973.990885,143.230469 977.994792,144.760417 982.421875,145.671875 C986.848958,146.583333 991.276042,147.071615 995.703125,147.136719 C1000.13021,147.201823 1003.84115,147.169271 1006.83594,147.039062 L1006.83594,147.039062 L1006.83594,141.960937 C1005.66406,141.830729 1003.51562,141.440104 1000.39062,140.789062 C997.265625,140.138021 994.042969,139.259115 990.722656,138.152344 C987.402344,137.045573 984.472656,135.678385 981.933594,134.050781 C979.394531,132.423177 978.125,130.567708 978.125,128.484375 C978.125,123.536458 979.101562,119.076823 981.054688,115.105469 C983.007812,111.134115 985.123698,107.260417 987.402344,103.484375 C989.68099,99.7083333 991.796875,95.8671875 993.75,91.9609375 C995.703125,88.0546875 996.679688,83.6927083 996.679688,78.875 C994.075521,78.875 991.276042,80.3072917 988.28125,83.171875 C985.286458,86.0364583 982.096354,89.6497396 978.710938,94.0117187 C975.325521,98.3736979 971.71224,103.126302 967.871094,108.269531 C964.029948,113.41276 959.99349,118.328125 955.761719,123.015625 C951.529948,127.703125 947.070312,131.772135 942.382812,135.222656 C937.695312,138.673177 932.8125,140.854167 927.734375,141.765625 L927.734375,141.765625 L927.734375,139.226562 C927.734375,138.966146 928.320312,137.598958 929.492188,135.125 C930.664062,132.651042 932.063802,129.81901 933.691406,126.628906 C935.31901,123.438802 936.979167,120.151042 938.671875,116.765625 C940.364583,113.380208 941.796875,110.710937 942.96875,108.757812 C943.619792,107.585937 944.401042,106.576823 945.3125,105.730469 C946.223958,104.884115 947.070312,104.005208 947.851562,103.09375 C948.632812,102.182292 949.316406,101.205729 949.902344,100.164062 C950.488281,99.1223958 950.78125,97.8203125 950.78125,96.2578125 C950.78125,92.7421875 948.958333,90.984375 945.3125,90.984375 C943.619792,90.984375 941.666667,92.0911458 939.453125,94.3046875 C937.239583,96.5182292 934.895833,99.3828125 932.421875,102.898437 C929.947917,106.414062 927.50651,110.320312 925.097656,114.617187 C922.688802,118.914062 920.540365,123.145833 918.652344,127.3125 C916.764323,131.479167 915.234375,135.352865 914.0625,138.933594 C912.890625,142.514323 912.304688,145.28125 912.304688,147.234375 C912.304688,149.447917 913.183594,151.661458 914.941406,153.875 C916.699219,156.088542 918.880208,157.195312 921.484375,157.195312 Z M989.453125,217.9375 C990.625,217.9375 992.122396,217.77474 993.945312,217.449219 C995.768229,217.123698 996.875,216.375 997.265625,215.203125 L997.265625,215.203125 L1022.65625,151.921875 L1025.19531,149.382812 C1030.53385,150.684896 1036.06771,150.847656 1041.79688,149.871094 C1047.52604,148.894531 1053.09245,147.104167 1058.49609,144.5 C1063.89974,141.895833 1069.04297,138.575521 1073.92578,134.539062 C1078.80859,130.502604 1083.07292,126.010417 1086.71875,121.0625 C1090.36458,116.114583 1093.26172,110.873698 1095.41016,105.339844 C1097.55859,99.8059896 1098.63281,94.2395833 1098.63281,88.640625 C1098.63281,83.4322917 1097.65625,79.9817708 1095.70312,78.2890625 C1093.75,76.5963542 1090.42969,75.75 1085.74219,75.75 C1082.61719,75.75 1079.03646,76.6289062 1075,78.3867187 C1070.96354,80.1445312 1066.82943,82.4231771 1062.59766,85.2226562 C1058.36589,88.0221354 1054.06901,91.2122396 1049.70703,94.7929687 C1045.34505,98.3736979 1041.27604,102.052083 1037.5,105.828125 C1033.72396,109.604167 1030.30599,113.315104 1027.24609,116.960937 C1024.1862,120.606771 1021.8099,123.796875 1020.11719,126.53125 C1019.20573,128.484375 1017.80599,131.446615 1015.91797,135.417969 C1014.02995,139.389323 1011.91406,143.88151 1009.57031,148.894531 C1007.22656,153.907552 1004.78516,159.148437 1002.24609,164.617187 C999.707031,170.085937 997.265625,175.326823 994.921875,180.339844 C992.578125,185.352865 990.494792,189.845052 988.671875,193.816406 C986.848958,197.78776 985.546875,200.684896 984.765625,202.507812 C984.635417,202.768229 984.440104,203.25651 984.179688,203.972656 C983.919271,204.688802 983.658854,205.4375 983.398438,206.21875 L983.203125,206.798584 C983.007812,207.372314 982.8125,207.927734 982.617188,208.464844 C982.356771,209.18099 982.161458,209.734375 982.03125,210.125 C982.03125,210.255208 981.998698,210.515625 981.933594,210.90625 C981.86849,211.296875 981.835938,211.557292 981.835938,211.6875 C981.835938,213.640625 982.682292,215.170573 984.375,216.277344 C986.067708,217.384115 987.760417,217.9375 989.453125,217.9375 Z M1032.61719,135.90625 L1032.61719,131.804687 C1032.61719,131.544271 1033.20312,130.567708 1034.375,128.875 C1035.54688,127.182292 1036.94661,125.261719 1038.57422,123.113281 C1040.20182,120.964844 1041.86198,118.816406 1043.55469,116.667969 C1045.2474,114.519531 1046.67969,112.794271 1047.85156,111.492187 C1050.45573,107.976562 1053.74349,104.721354 1057.71484,101.726562 C1061.6862,98.7317708 1065.625,96.3229167 1069.53125,94.5 C1073.4375,92.6770833 1076.95312,91.5703125 1080.07812,91.1796875 C1083.20312,90.7890625 1085.28646,91.375 1086.32812,92.9375 C1087.36979,94.5 1086.97917,97.2018229 1085.15625,101.042969 C1083.33333,104.884115 1079.36198,110.059896 1073.24219,116.570312 C1067.90365,124.122396 1062.04427,129.233073 1055.66406,131.902344 C1049.28385,134.571615 1041.60156,135.90625 1032.61719,135.90625 L1032.61719,135.90625 Z M1119.72656,157.195312 C1122.85156,157.195312 1125.87891,156.544271 1128.80859,155.242187 C1131.73828,153.940104 1134.47266,152.3125 1137.01172,150.359375 C1139.55078,148.40625 1141.95964,146.22526 1144.23828,143.816406 C1146.51693,141.407552 1148.63281,139.096354 1150.58594,136.882812 C1150.58594,138.966146 1150.94401,141.082031 1151.66016,143.230469 C1152.3763,145.378906 1153.38542,147.299479 1154.6875,148.992187 C1155.98958,150.684896 1157.55208,152.052083 1159.375,153.09375 C1161.19792,154.135417 1163.28125,154.65625 1165.625,154.65625 C1168.09896,154.65625 1170.80078,154.395833 1173.73047,153.875 C1176.66016,153.354167 1179.49219,152.540365 1182.22656,151.433594 C1184.96094,150.326823 1187.5651,148.992187 1190.03906,147.429687 C1192.51302,145.867187 1194.53125,143.979167 1196.09375,141.765625 C1195.70312,141.765625 1194.88932,141.733073 1193.65234,141.667969 C1192.41536,141.602865 1191.53646,141.570312 1191.01562,141.570312 C1188.02083,141.570312 1185.05859,142.026042 1182.12891,142.9375 L1181.49962,143.125837 C1178.76624,143.911737 1175.94866,144.304687 1173.04688,144.304687 C1169.27083,144.304687 1166.63411,143.295573 1165.13672,141.277344 C1163.63932,139.259115 1162.89062,136.557292 1162.89062,133.171875 C1162.89062,129.916667 1163.57422,126.856771 1164.94141,123.992187 C1166.30859,121.127604 1167.80599,118.328125 1169.43359,115.59375 C1171.0612,112.859375 1172.55859,110.125 1173.92578,107.390625 C1175.29297,104.65625 1175.97656,101.791667 1175.97656,98.796875 C1173.5026,94.890625 1170.27995,92.2864583 1166.30859,90.984375 C1162.33724,89.6822917 1158.00781,89.4544271 1153.32031,90.3007812 C1148.63281,91.1471354 1143.8151,93.0677083 1138.86719,96.0625 C1133.91927,99.0572917 1129.32943,102.865885 1125.09766,107.488281 C1120.86589,112.110677 1117.1224,117.546875 1113.86719,123.796875 C1110.61198,130.046875 1108.39844,136.882812 1107.22656,144.304687 C1107.22656,147.820312 1108.46354,150.847656 1110.9375,153.386719 C1113.41146,155.925781 1116.34115,157.195312 1119.72656,157.195312 Z M1122.65625,144.304687 C1121.09375,143.914062 1120.27995,143.067708 1120.21484,141.765625 C1120.14974,140.463542 1120.11719,139.291667 1120.11719,138.25 C1120.11719,133.692708 1121.25651,129.330729 1123.53516,125.164062 C1125.8138,120.997396 1128.77604,117.31901 1132.42188,114.128906 C1136.06771,110.938802 1140.16927,108.432292 1144.72656,106.609375 C1149.28385,104.786458 1153.77604,103.875 1158.20312,103.875 C1158.20312,104.135417 1158.23568,104.558594 1158.30078,105.144531 L1158.32367,105.356628 C1158.37351,105.83372 1158.39844,106.186198 1158.39844,106.414062 C1158.39844,110.190104 1157.16146,114.128906 1154.6875,118.230469 C1152.21354,122.332031 1149.15365,126.173177 1145.50781,129.753906 C1141.86198,133.334635 1137.95573,136.459635 1133.78906,139.128906 C1129.6224,141.798177 1125.91146,143.523437 1122.65625,144.304687 Z M1209.57031,157 C1211.0026,157 1212.23958,156.707031 1213.28125,156.121094 C1214.32292,155.535156 1214.84375,154.65625 1214.84375,153.484375 C1214.84375,151.661458 1214.16016,150.229167 1212.79297,149.1875 C1211.42578,148.145833 1209.96094,147.104167 1208.39844,146.0625 C1206.83594,145.020833 1205.37109,143.816406 1204.00391,142.449219 C1202.63672,141.082031 1201.95312,139.226562 1201.95312,136.882812 C1201.95312,132.455729 1202.89714,127.572917 1204.78516,122.234375 C1206.67318,116.895833 1209.08203,111.329427 1212.01172,105.535156 C1214.94141,99.7408854 1218.19661,93.8815104 1221.77734,87.9570312 C1225.35807,82.0325521 1228.84115,76.3359375 1232.22656,70.8671875 C1235.61198,65.3984375 1238.67188,60.2552083 1241.40625,55.4375 C1244.14062,50.6197917 1246.15885,46.453125 1247.46094,42.9375 C1247.59115,42.9375 1247.65625,42.3515625 1247.65625,41.1796875 L1247.65625,41.1796875 L1247.65625,38.4453125 C1247.65625,37.9244792 1247.6888,37.2734375 1247.75391,36.4921875 C1247.81901,35.7109375 1247.78646,34.8971354 1247.65625,34.0507812 C1247.52604,33.2044271 1247.26562,32.4557292 1246.875,31.8046875 C1246.48438,31.1536458 1245.83333,30.6979167 1244.92188,30.4375 C1243.75,31.4791667 1242.28516,32.8789062 1240.52734,34.6367187 C1238.76953,36.3945312 1237.01172,38.2825521 1235.25391,40.3007812 C1233.49609,42.3190104 1231.86849,44.2721354 1230.37109,46.1601562 C1228.8737,48.0481771 1227.86458,49.5130208 1227.34375,50.5546875 L1227.34375,50.5546875 L1191.79688,121.648437 C1191.53646,122.039062 1191.27604,122.983073 1191.01562,124.480469 C1190.75521,125.977865 1190.49479,127.638021 1190.23438,129.460937 C1189.97396,131.283854 1189.74609,133.139323 1189.55078,135.027344 C1189.35547,136.915365 1189.25781,138.315104 1189.25781,139.226562 C1189.25781,144.955729 1191.27604,149.35026 1195.3125,152.410156 C1199.34896,155.470052 1204.10156,157 1209.57031,157 Z" id="HardeepRupal" fill="#F59E0B" fill-rule="nonzero"></path>
    </g>
</svg>